# xmcd
#
# Track frame offsets:
#	150
#	12440
#	23998
#	37791
#	52033
#	65132
#	75115
#	88952
#
# Disc length: 1398 seconds
#
# Revision: 1
# Processed by: cddbd v1.5.2PL0 Copyright (c) Steve Scherf et al.
# Submitted via: audiograbber 1.83.01
#
DISCID=5d057408
DTITLE=Jack Morgen - Ich bin ein Tramp
DYEAR=2008
DGENRE=Country Music Live
TTITLE0=Ich bin ein Tramp
TTITLE1=Ring of fire
TTITLE2=Jambalaya
TTITLE3=Ruby, don't take your love to town
TTITLE4=Ich möcht' so gern mal nach Nashville
TTITLE5=Help me make it through the night
TTITLE6=Luckenbach Texas
TTITLE7=Friends in low places
EXTD=Info und Bookinc:\nArmin Eulberg\nBurgunderweg 9\nD-72766 Reutlingen-Mitte
EXTD=lstadt\nTel: 07127/ 925757\nwww.jack-morgen.de
EXTT0=
EXTT1=
EXTT2=
EXTT3=
EXTT4=
EXTT5=
EXTT6=
EXTT7=
PLAYORDER=
